<svg id="visual" viewBox="0 0 960 540" width="960" height="540" xmlns="http://www.w3.org/2000/svg" xmlns:xlink="http://www.w3.org/1999/xlink" version="1.1"><path d="M0 158L14.5 159.7C29 161.3 58 164.7 87.2 175.3C116.3 186 145.7 204 174.8 217.5C204 231 233 240 262 227.5C291 215 320 181 349 153.2C378 125.3 407 103.7 436.2 105.5C465.3 107.3 494.7 132.7 523.8 146.2C553 159.7 582 161.3 611 163C640 164.7 669 166.3 698 156.5C727 146.7 756 125.3 785.2 126.3C814.3 127.3 843.7 150.7 872.8 150.7C902 150.7 931 127.3 945.5 115.7L960 104L960 0L945.5 0C931 0 902 0 872.8 0C843.7 0 814.3 0 785.2 0C756 0 727 0 698 0C669 0 640 0 611 0C582 0 553 0 523.8 0C494.7 0 465.3 0 436.2 0C407 0 378 0 349 0C320 0 291 0 262 0C233 0 204 0 174.8 0C145.7 0 116.3 0 87.2 0C58 0 29 0 14.5 0L0 0Z" fill="#575757"></path><path d="M0 244L14.5 236.8C29 229.7 58 215.3 87.2 218C116.3 220.7 145.7 240.3 174.8 253.8C204 267.3 233 274.7 262 268.3C291 262 320 242 349 224C378 206 407 190 436.2 185.5C465.3 181 494.7 188 523.8 195.2C553 202.3 582 209.7 611 220.5C640 231.3 669 245.7 698 238.5C727 231.3 756 202.7 785.2 195.5C814.3 188.3 843.7 202.7 872.8 198.2C902 193.7 931 170.3 945.5 158.7L960 147L960 102L945.5 113.7C931 125.3 902 148.7 872.8 148.7C843.7 148.7 814.3 125.3 785.2 124.3C756 123.3 727 144.7 698 154.5C669 164.3 640 162.7 611 161C582 159.3 553 157.7 523.8 144.2C494.7 130.7 465.3 105.3 436.2 103.5C407 101.7 378 123.3 349 151.2C320 179 291 213 262 225.5C233 238 204 229 174.8 215.5C145.7 202 116.3 184 87.2 173.3C58 162.7 29 159.3 14.5 157.7L0 156Z" fill="#454545"></path><path d="M0 336L14.5 353C29 370 58 404 87.2 410.3C116.3 416.7 145.7 395.3 174.8 385.5C204 375.7 233 377.3 262 384.5C291 391.7 320 404.3 349 406.2C378 408 407 399 436.2 396.3C465.3 393.7 494.7 397.3 523.8 403.7C553 410 582 419 611 406.3C640 393.7 669 359.3 698 350.3C727 341.3 756 357.7 785.2 369.3C814.3 381 843.7 388 872.8 381.7C902 375.3 931 355.7 945.5 345.8L960 336L960 145L945.5 156.7C931 168.3 902 191.7 872.8 196.2C843.7 200.7 814.3 186.3 785.2 193.5C756 200.7 727 229.3 698 236.5C669 243.7 640 229.3 611 218.5C582 207.7 553 200.3 523.8 193.2C494.7 186 465.3 179 436.2 183.5C407 188 378 204 349 222C320 240 291 260 262 266.3C233 272.7 204 265.3 174.8 251.8C145.7 238.3 116.3 218.7 87.2 216C58 213.3 29 227.7 14.5 234.8L0 242Z" fill="#333333"></path><path d="M0 449L14.5 458C29 467 58 485 87.2 490.5C116.3 496 145.7 489 174.8 477.3C204 465.7 233 449.3 262 450.2C291 451 320 469 349 475.3C378 481.7 407 476.3 436.2 471.8C465.3 467.3 494.7 463.7 523.8 467.2C553 470.7 582 481.3 611 478.7C640 476 669 460 698 452.8C727 445.7 756 447.3 785.2 450.8C814.3 454.3 843.7 459.7 872.8 457.8C902 456 931 447 945.5 442.5L960 438L960 334L945.5 343.8C931 353.7 902 373.3 872.8 379.7C843.7 386 814.3 379 785.2 367.3C756 355.7 727 339.3 698 348.3C669 357.3 640 391.7 611 404.3C582 417 553 408 523.8 401.7C494.7 395.3 465.3 391.7 436.2 394.3C407 397 378 406 349 404.2C320 402.3 291 389.7 262 382.5C233 375.3 204 373.7 174.8 383.5C145.7 393.3 116.3 414.7 87.2 408.3C58 402 29 368 14.5 351L0 334Z" fill="#2c2c2c"></path><path d="M0 541L14.5 541C29 541 58 541 87.2 541C116.3 541 145.7 541 174.8 541C204 541 233 541 262 541C291 541 320 541 349 541C378 541 407 541 436.2 541C465.3 541 494.7 541 523.8 541C553 541 582 541 611 541C640 541 669 541 698 541C727 541 756 541 785.2 541C814.3 541 843.7 541 872.8 541C902 541 931 541 945.5 541L960 541L960 436L945.5 440.5C931 445 902 454 872.8 455.8C843.7 457.7 814.3 452.3 785.2 448.8C756 445.3 727 443.7 698 450.8C669 458 640 474 611 476.7C582 479.3 553 468.7 523.8 465.2C494.7 461.7 465.3 465.3 436.2 469.8C407 474.3 378 479.7 349 473.3C320 467 291 449 262 448.2C233 447.3 204 463.7 174.8 475.3C145.7 487 116.3 494 87.2 488.5C58 483 29 465 14.5 456L0 447Z" fill="#262626"></path></svg>